<?xml version="1.0" encoding="utf-8"?>
<!-- Generator: Adobe Illustrator 13.0.1, SVG Export Plug-In . SVG Version: 6.00 Build 14948)  -->
<!DOCTYPE svg PUBLIC "-//W3C//DTD SVG 1.1//EN" "http://www.w3.org/Graphics/SVG/1.1/DTD/svg11.dtd">
<svg version="1.1" id="Warstwa_1" xmlns="http://www.w3.org/2000/svg" xmlns:xlink="http://www.w3.org/1999/xlink" x="0px" y="0px"
	 width="17.81px" height="17.971px" viewBox="0 0 17.81 17.971" enable-background="new 0 0 17.81 17.971" xml:space="preserve">
<g>
	<path fill="#54AB31" d="M15.238,6.185c0.59-0.588,1.547-0.586,2.135,0.008l0,0c0.584,0.592,0.584,1.549-0.002,2.139l-8.09,8.041
		c-0.592,0.588-1.549,0.584-2.135-0.006l0,0c-0.59-0.596-0.59-1.551,0.006-2.141L15.238,6.185z"/>
	<path fill="#98BF1D" d="M9.519,0.443c0.596-0.592,1.549-0.59,2.137,0.002l0,0C12.25,1.037,12.24,1.99,11.648,2.58l-8.084,8.043
		c-0.594,0.59-1.545,0.588-2.139-0.004l0,0c-0.588-0.59-0.582-1.547,0.008-2.135L9.519,0.443z"/>
	<path fill="#71B22C" d="M10.187,5.496c0.592-0.592,1.545-0.59,2.133,0.004l0,0c0.596,0.592,0.588,1.547-0.002,2.137l-8.086,8.043
		c-0.594,0.59-1.551,0.586-2.135-0.006l0,0c-0.594-0.59-0.586-1.549,0.006-2.135L10.187,5.496z"/>
	<path fill="#C9D300" d="M0.457,3.83c0.609-0.604,1.596-0.602,2.201,0.008c0.611,0.605,0.604,1.592-0.002,2.199
		C2.042,6.642,1.06,6.64,0.455,6.033C-0.153,5.419-0.151,4.435,0.457,3.83z"/>
	<circle fill="#00973D" cx="12.977" cy="16.416" r="1.557"/>
</g>
</svg>
